<svg width="12" height="14" viewBox="0 0 12 14" fill="none" xmlns="http://www.w3.org/2000/svg">
<path d="M5.87331 7.70048C6.88256 7.70048 7.70072 6.88232 7.70072 5.87307C7.70072 4.86381 6.88256 4.04565 5.87331 4.04565C4.86406 4.04565 4.0459 4.86381 4.0459 5.87307C4.0459 6.88232 4.86406 7.70048 5.87331 7.70048Z" stroke="#1673BE" stroke-width="1.2" stroke-linecap="round" stroke-linejoin="round"/>
<path d="M5.8731 13C9.10152 10.1371 10.7462 7.70051 10.7462 5.8731C10.7462 4.58067 10.2328 3.34118 9.3189 2.4273C8.40501 1.51341 7.16552 1 5.8731 1C4.58067 1 3.34118 1.51341 2.4273 2.4273C1.51341 3.34118 1 4.58067 1 5.8731C1 7.70051 2.64467 10.0761 5.8731 13Z" stroke="#1673BE" stroke-width="1.2" stroke-linecap="round" stroke-linejoin="round"/>
</svg>
