<svg width="13" height="13" viewBox="0 0 13 13" fill="none" xmlns="http://www.w3.org/2000/svg">
<path d="M11.9997 9.25196V10.9112C12.0003 11.0652 11.9687 11.2177 11.907 11.3588C11.8453 11.5 11.7548 11.6266 11.6413 11.7308C11.5278 11.8349 11.3938 11.9142 11.2479 11.9635C11.102 12.0129 10.9474 12.0312 10.794 12.0173C9.09204 11.8324 7.45724 11.2509 6.0209 10.3194C4.68457 9.47024 3.55159 8.33727 2.70244 7.00094C1.76772 5.55807 1.18603 3.91532 1.00449 2.20576C0.990668 2.05282 1.00884 1.89867 1.05786 1.75314C1.10688 1.6076 1.18566 1.47387 1.28919 1.36045C1.39273 1.24703 1.51874 1.15641 1.65922 1.09437C1.79969 1.03232 1.95155 1.0002 2.10511 1.00005H3.76434C4.03276 0.997412 4.29297 1.09246 4.49649 1.26748C4.7 1.44251 4.83293 1.68556 4.8705 1.95135C4.94053 2.48234 5.07041 3.0037 5.25765 3.50549C5.33206 3.70345 5.34817 3.91859 5.30406 4.12543C5.25995 4.33226 5.15747 4.52211 5.00877 4.67248L4.30636 5.37489C5.09369 6.75955 6.24017 7.90602 7.62482 8.69335L8.32723 7.99095C8.4776 7.84224 8.66746 7.73977 8.87429 7.69565C9.08112 7.65154 9.29626 7.66765 9.49422 7.74206C9.99601 7.92931 10.5174 8.05918 11.0484 8.12922C11.317 8.16712 11.5624 8.30244 11.7378 8.50945C11.9132 8.71646 12.0064 8.98072 11.9997 9.25196Z" stroke="#1673BE" stroke-width="1.2" stroke-linecap="round" stroke-linejoin="round"/>
</svg>
